<?xml version="1.0" encoding="UTF-8"?>
<!DOCTYPE svg PUBLIC "-//W3C//DTD SVG 1.1//EN" "http://www.w3.org/Graphics/SVG/1.1/DTD/svg11.dtd">
<!-- Creator: CorelDRAW 2020 (64-Bit) -->
<svg xmlns="http://www.w3.org/2000/svg" xml:space="preserve" width="297mm" height="148.491mm" version="1.1" style="shape-rendering:geometricPrecision; text-rendering:geometricPrecision; image-rendering:optimizeQuality; fill-rule:evenodd; clip-rule:evenodd"
viewBox="0 0 29699.96 14849.08"
 xmlns:xlink="http://www.w3.org/1999/xlink"
 xmlns:xodm="http://www.corel.com/coreldraw/odm/2003">
 <defs>
  <style type="text/css">
   <![CDATA[
    .fil0 {fill:#333C51;fill-rule:nonzero}
    .fil1 {fill:#3A445B;fill-rule:nonzero}
    .fil2 {fill:#404C66;fill-rule:nonzero}
    .fil3 {fill:#475370;fill-rule:nonzero}
    .fil4 {fill:#4D5B7B;fill-rule:nonzero}
    .fil8 {fill:#5190B2;fill-rule:nonzero}
    .fil7 {fill:#527DA3;fill-rule:nonzero}
    .fil6 {fill:#536E94;fill-rule:nonzero}
    .fil5 {fill:#546385;fill-rule:nonzero}
    .fil9 {fill:#54A4BD;fill-rule:nonzero}
    .fil10 {fill:#58B9C7;fill-rule:nonzero}
   ]]>
  </style>
 </defs>
 <g id="Capa_x0020_1">
  <metadata id="CorelCorpID_0Corel-Layer"/>
  <g id="_4730878848">
   <rect class="fil0" x="-0.54" y="7.14" width="29698.13" height="14849.07"/>
   <g>
    <path class="fil1" d="M9020.26 13107.73c-2028.75,-404.63 -4146.6,-597.67 -6223.62,-360.09 -950.33,105.81 -1887.68,308.12 -2797.18,619.95l0 1488.62 15662.05 0c-2151.25,-616.24 -4283.96,-1264.03 -6451.92,-1711.35 -63.11,-13 -126.21,-24.13 -189.33,-37.13z"/>
    <path class="fil2" d="M29697.59 7.14l-29698.13 0 0 13360.45c909.5,-311.83 1846.85,-516 2797.19,-621.8 2077.01,-235.72 4194.87,-44.54 6223.62,360.09 63.11,12.99 126.22,25.99 189.33,37.13 2167.96,445.47 4300.66,1095.12 6451.92,1711.35l14036.07 -0.01 0 -14847.21z"/>
    <path class="fil3" d="M8879.2 10791.28c59.4,14.85 118.79,31.55 176.33,46.4 3641.73,974.47 7214.79,2477.94 11016.15,3277.94 3233.38,679.34 6487.18,541.99 9625.9,-189.33l0.01 -13919.15 -29698.13 0 0 10670.91c970.76,-326.68 1976.78,-514.14 2990.23,-573.54 1991.63,-122.5 3983.26,189.33 5889.51,686.77z"/>
    <path class="fil4" d="M-0.54 7.14l0 7970.24c1032.01,-341.53 2106.71,-506.73 3181.41,-514.14 1908.11,-14.85 3771.66,421.34 5555.41,1011.59 55.69,18.56 109.51,37.13 165.2,55.69 3407.86,1150.81 6787.88,2711.81 10438.89,3565.63 3465.4,811.13 6984.63,638.51 10355.37,-233.87l-0.01 -11855.14 -29696.27 0z"/>
    <path class="fil5" d="M3373.91 4821.95c1822.72,111.37 3561.91,653.36 5221.3,1338.28 51.97,20.42 102.08,42.68 154.06,63.1 3173.99,1329 6360.97,2941.98 9861.64,3855.19 3690,961.48 7487.64,757.3 11086.68,-274.71l0 -9796.67 -29698.13 0 0 5256.57c1095.12,-363.79 2238.5,-510.43 3374.45,-441.76z"/>
    <path class="fil6" d="M29697.59 7.14l-29698.13 0 0 2529.92c1156.37,-387.94 2370.28,-510.44 3567.48,-356.38 1737.34,224.59 3350.32,885.37 4887.21,1663.09 48.25,24.13 94.66,48.26 142.92,72.39 2940.11,1505.32 5934.05,3172.13 9286.23,4142.89 3907.17,1132.24 7996.23,909.5 11816.15,-308.12l0 -7743.79 -1.86 0z"/>
    <path class="fil7" d="M8443.01 1608.98c2706.24,1683.52 5507.14,3396.73 8708.98,4430.59 3871.9,1251.04 8005.51,1128.53 11840.28,-98.37 237.58,-76.1 471.46,-155.92 707.18,-239.44l0 -5694.62 -24352.47 0c1039.44,395.36 2017.62,939.2 2964.25,1522.04 44.54,25.98 87.23,53.82 131.78,79.8z"/>
    <path class="fil8" d="M29697.59 7.14l-20454.59 0c2192.09,1592.56 4519.68,3053.34 7179.53,4012.96 3560.06,1284.45 7424.53,1386.53 11043.99,391.65 757.3,-207.89 1505.33,-467.75 2232.93,-774.01l0 -3630.6 -1.86 0z"/>
    <path class="fil9" d="M25938.92 2880.43c876.09,-196.74 1737.34,-469.6 2572.6,-812.99 402.78,-165.2 798.14,-348.95 1186.06,-547.55l0.01 -1512.75 -17755.77 0c1167.5,774.02 2407.41,1451.5 3751.24,1993.49 3246.39,1312.29 6843.57,1646.4 10245.86,879.8z"/>
    <path class="fil10" d="M24413.18 1350.98c1397.68,-233.88 2763.79,-688.63 4024.1,-1343.85l-13419.85 0.01c2927.13,1317.86 6229.18,1874.7 9395.75,1343.84z"/>
   </g>
  </g>
 </g>
</svg>
